<svg xmlns="http://www.w3.org/2000/svg" width="237" height="333.3" style="enable-background:new 0 0 237 333.3" xml:space="preserve"><style>.st1{fill:#f2f2f3;stroke:#f2f2f3}</style><path d="M.5 118.5c0 65.1 52.9 118 118 118s118-52.9 118-118S183.6.5 118.5.5.5 53.4.5 118.5zm32.7 0c0-47 38.3-85.3 85.3-85.3s85.3 38.3 85.3 85.3-38.3 85.3-85.3 85.3-85.3-38.3-85.3-85.3z" style="fill:#f2f2f3;stroke:#f2f2f3;stroke-miterlimit:10"/><path class="st1" d="M100.2 104.8c0 16.2-7.6 29.3-17 29.3s-17-13.1-17-29.3c0-16.2 7.6-29.3 17-29.3 9.4-.1 17 13.1 17 29.3zM169.9 104.6c0 16.2-7.6 29.3-17 29.3s-17-13.1-17-29.3c0-16.2 7.6-29.3 17-29.3s17 13.1 17 29.3zM153.8 216.8l-35.5 114.8-35.5-114.8zM202.1 190.4l-4.1 80.2-42.8-67.9zM32.6 190.2l7.7 80.2 38-65.6zM223 158.5l12.5 48.2-39.4-30.3zM11.5 157.6l-9.3 48.8 37.4-32.8z"/><path class="st1" d="M14.6 162.3c3.3 12.4 30.1 84.3 103.9 84.3 73.8 0 96.8-72.6 100.8-85.6 3.9-13.1-51 81.1-100.7 64.1s-70-7.2-84.3-36.6c-14.5-29.5-19.7-26.2-19.7-26.2z"/></svg>
